<svg xmlns="http://www.w3.org/2000/svg" viewBox="0 0 32 32" width="32" height="32"><rect x="6" y="14" width="20" height="14" rx="2" fill="#4a6fa5"/><rect x="8" y="6" width="16" height="12" rx="2" fill="#4a6fa5"/><circle cx="12" cy="10" r="2" fill="#ffffff"/><circle cx="20" cy="10" r="2" fill="#ffffff"/><circle cx="12" cy="10" r="1" fill="#000000"/><circle cx="20" cy="10" r="1" fill="#000000"/><rect x="14" y="14" width="4" height="2" fill="#ffffff"/><line x1="16" y1="6" x2="16" y2="2" stroke="#4a6fa5" stroke-width="2"/><circle cx="16" cy="2" r="1.5" fill="#ff9800"/><rect x="2" y="16" width="4" height="8" rx="2" fill="#6b8cae"/><rect x="26" y="16" width="4" height="8" rx="2" fill="#6b8cae"/><rect x="10" y="28" width="4" height="6" rx="2" fill="#6b8cae"/><rect x="18" y="28" width="4" height="6" rx="2" fill="#6b8cae"/><rect x="12" y="18" width="8" height="6" rx="1" fill="#2a3441"/><circle cx="14" cy="20" r="0.5" fill="#4caf50"/><circle cx="18" cy="20" r="0.5" fill="#4caf50"/><circle cx="16" cy="22" r="0.5" fill="#ff9800"/></svg>
